<svg width="513" height="441" viewBox="0 0 513 441" fill="none" xmlns="http://www.w3.org/2000/svg">
<path d="M307.822 72.2556C310.065 64.583 320.935 64.583 323.178 72.2556L358.96 194.607C359.726 197.226 361.774 199.274 364.393 200.04L486.744 235.822C494.417 238.065 494.417 248.935 486.744 251.178L364.393 286.96C361.774 287.726 359.726 289.774 358.96 292.393L323.178 414.744C320.935 422.417 310.065 422.417 307.822 414.744L272.04 292.393C271.274 289.774 269.226 287.726 266.607 286.96L144.256 251.178C136.583 248.935 136.583 238.065 144.256 235.822L266.607 200.04C269.226 199.274 271.274 197.226 272.04 194.607L307.822 72.2556Z" fill="#DB0064"/>
<path d="M123.241 19.6917C124.924 13.9372 133.076 13.9372 134.759 19.6917L157.494 97.4317C158.068 99.3959 159.604 100.932 161.568 101.506L239.308 124.241C245.063 125.924 245.063 134.076 239.308 135.759L161.568 158.494C159.604 159.068 158.068 160.604 157.494 162.568L134.759 240.308C133.076 246.063 124.924 246.063 123.241 240.308L100.506 162.568C99.9319 160.604 98.3959 159.068 96.4317 158.494L18.6917 135.759C12.9372 134.076 12.9372 125.924 18.6917 124.241L96.4317 101.506C98.3959 100.932 99.9319 99.3959 100.506 97.4317L123.241 19.6917Z" fill="#DB0064"/>
<path d="M161.08 266.564C161.641 264.646 164.359 264.646 164.92 266.564L178.984 314.657C179.176 315.312 179.688 315.824 180.343 316.016L228.436 330.08C230.354 330.641 230.354 333.359 228.436 333.92L180.343 347.984C179.688 348.176 179.176 348.688 178.984 349.343L164.92 397.436C164.359 399.354 161.641 399.354 161.08 397.436L147.016 349.343C146.824 348.688 146.312 348.176 145.657 347.984L97.5639 333.92C95.6457 333.359 95.6457 330.641 97.5639 330.08L145.657 316.016C146.312 315.824 146.824 315.312 147.016 314.657L161.08 266.564Z" fill="#DB0064"/>
</svg>