<svg width="29" height="44" viewBox="0 0 29 44" fill="none" xmlns="http://www.w3.org/2000/svg">
<path d="M18.2221 1.02337L0.860488 19.7463C0.580617 20.0791 0.0265029 20.875 0.134861 21.7112C0.243219 22.5474 1.06236 23.0889 1.31762 23.274L10.2354 26.5024L6.58558 39.3302C6.37563 40.1463 6.66763 41.9936 7.70284 42.6034C8.73805 43.2132 10.6628 43.1522 11.1424 42.7251L27.7373 24.2344C27.9547 23.9603 28.541 23.0589 28.4105 22.0518C28.2743 21.0013 27.6645 20.0697 27.1786 19.9228L18.4929 17.4614C19.8176 12.9943 22.5477 3.86374 22.8708 3.07791C23.0517 2.63806 22.783 1.00383 21.5671 0.500105C20.1619 -0.0820798 18.7151 0.548705 18.2221 1.02337Z" fill="url(#paint0_linear_751_908)"/>
<defs>
<linearGradient id="paint0_linear_751_908" x1="11.615" y1="1.37288" x2="16.9004" y2="42.1594" gradientUnits="userSpaceOnUse">
<stop stop-color="#D91A71"/>
<stop offset="1" stop-color="#C4005A"/>
</linearGradient>
</defs>
</svg>
